# xmcd
#
# Track frame offsets:
#	150
#	20732
#	28965
#	35940
#	54052
#	67190
#	85372
#	103320
#	114385
#	137360
#	149692
#	164577
#	175047
#	187027
#	202340
#	212775
#	241807
#	267297
#	291795
#	305187
#
# Disc length: 4282 seconds
#
# Revision: 1
# Processed by: cddbd v1.5.1PL0 Copyright (c) Steve Scherf et al.
# Submitted via: CDex 1.50Beta5
#
DISCID=4310b814
DTITLE=さまざまなアーティスト - D*SELDOM #4
DYEAR=1900
DGENRE=
TTITLE0=レミオロメン/フェスタ
TTITLE1=フーバーオーバー/コレクション(F.O.)
TTITLE2=Bivattchee/青春の炎(F.O.)
TTITLE3=The LILAC/さよなら恋人
TTITLE4=サイクロン/未だ見ぬ場所
TTITLE5=太陽族/誇り
TTITLE6=LINK/月面砂漠ローリングロック
TTITLE7=LOST IN TIME/約束(F.O.)
TTITLE8=陽/太陽を越えて行け!!
TTITLE9=WRECKingCReW/哀歌
TTITLE10=GOOD 4 NOTHING/LET'S DRIVING THE SEA SIDE
TTITLE11=MOLMOTT/LIVE ALIVE
TTITLE12=ロットングラフティー/夕映え雨アガレ
TTITLE13=GRIFFIN/A MILLION SHORT
TTITLE14=BAZRA/人間
TTITLE15=フジファブリック/環状七号線
TTITLE16=残像カフェ/自己嫌悪のブルース
TTITLE17=Spangle call Lilli line/nano
TTITLE18=きたはらいく/カラダをぬいで
TTITLE19=copa salvo/hasta manana(F.O.)
EXTD=
EXTT0=
EXTT1=
EXTT2=
EXTT3=
EXTT4=
EXTT5=
EXTT6=
EXTT7=
EXTT8=
EXTT9=
EXTT10=
EXTT11=
EXTT12=
EXTT13=
EXTT14=
EXTT15=
EXTT16=
EXTT17=
EXTT18=
EXTT19=
PLAYORDER=
